<mxfile host="app.diagrams.net" modified="2024-05-30T02:41:31.528Z" agent="Mozilla/5.0 (Windows NT 10.0; Win64; x64) AppleWebKit/537.36 (KHTML, like Gecko) Chrome/125.0.0.0 Safari/537.36" version="24.4.10" etag="oy8yZ_svbd8GV1DQuRhx" type="github">
  <diagram name="PÃ¡gina-1" id="4nwpe8K-PbcOyL1zPqsN">
    <mxGraphModel>
      <root>
        <mxCell id="0" />
        <mxCell id="1" parent="0" />
      </root>
    </mxGraphModel>
  </diagram>
</mxfile>
